<?xml version="1.0" encoding="utf-8"?>
<!-- Generator: Adobe Illustrator 26.0.3, SVG Export Plug-In . SVG Version: 6.00 Build 0)  -->
<svg version="1.1" id="Layer_1" xmlns="http://www.w3.org/2000/svg" xmlns:xlink="http://www.w3.org/1999/xlink" x="0px" y="0px"
	 viewBox="0 0 512 512" style="enable-background:new 0 0 512 512;" xml:space="preserve">
<style type="text/css">
	.st0{fill:#316B84;}
</style>
<g>
	<path class="st0" d="M238.48,183.23c0,5.66-0.37,11.31-1.09,16.79c6.02,1.09,12.23,1.73,18.61,1.73s12.59-0.64,18.61-1.73
		c-0.73-5.47-1.09-11.13-1.09-16.79c0-51.74,31.11-96.35,75.64-116.06C335.02,29.49,298.61,2.66,256,2.66s-79.02,26.83-93.16,64.51
		C207.37,86.88,238.48,131.5,238.48,183.23z"/>
	<path class="st0" d="M300.89,183.23c0,2.56,0.09,5.2,0.37,7.66c0.27,4.84,1,9.58,2.01,14.14c1,4.56,2.37,8.94,4.01,13.23
		c1.73,4.74,3.83,9.22,6.3,13.6c22.72-21.35,53.29-34.49,86.86-34.49s64.14,13.14,86.86,34.49c8.12-14.42,12.68-31.02,12.68-48.63
		c0-54.84-44.62-99.55-99.55-99.55c-6.39,0-12.59,0.64-18.61,1.73c-4.56,0.91-9.03,2.01-13.32,3.56c-4.56,1.46-8.94,3.38-13.23,5.66
		C323.06,111.06,300.89,144.64,300.89,183.23z"/>
	<path class="st0" d="M111.56,197.38c33.58,0,64.14,13.14,86.86,34.49c2.46-4.38,4.56-8.85,6.3-13.6c1.64-4.29,3.01-8.67,4.01-13.23
		c1-4.56,1.73-9.31,2.01-14.14c0.27-2.46,0.37-5.11,0.37-7.66c0-38.6-22.08-72.17-54.29-88.69c-4.29-2.19-8.67-4.01-13.32-5.57
		c-4.29-1.55-8.76-2.65-13.32-3.56c-6.02-1.09-12.23-1.73-18.61-1.73c-54.93,0-99.55,44.71-99.55,99.55
		c0,17.61,4.56,34.22,12.68,48.63C47.42,210.51,77.98,197.38,111.56,197.38z"/>
	<path class="st0" d="M479.73,264.17c-2.83-3.65-5.84-7.12-9.12-10.4c-17.98-17.98-42.79-29.02-70.17-29.02s-52.1,11.04-70.17,29.02
		c-3.19,3.19-6.2,6.66-9.03,10.31c-2.83,3.65-5.38,7.48-7.57,11.59c-3.19,5.47-5.75,11.31-7.76,17.43
		c45.26,19.34,77.01,64.33,77.01,116.61c0,4.2-0.18,8.39-0.64,12.5c5.93,1.09,11.95,1.64,18.16,1.64
		c54.93,0,99.55-44.62,99.55-99.55c0-17.7-4.65-34.31-12.77-48.63C485.02,271.65,482.47,267.82,479.73,264.17z"/>
	<path class="st0" d="M206.09,293.09c-2.01-6.11-4.56-11.95-7.76-17.43c-2.19-4.11-4.74-7.94-7.57-11.59
		c-2.74-3.65-5.75-7.12-9.03-10.31c-17.97-17.98-42.79-29.02-70.17-29.02s-52.19,11.04-70.17,29.02c-3.28,3.19-6.3,6.66-9.03,10.31
		c-2.83,3.65-5.38,7.48-7.57,11.59c-8.12,14.33-12.77,30.93-12.77,48.63c0,54.93,44.62,99.55,99.55,99.55
		c6.2,0,12.23-0.55,18.16-1.64c-0.46-4.11-0.64-8.3-0.64-12.5C129.08,357.42,160.83,312.43,206.09,293.09z"/>
	<path class="st0" d="M300.98,320.92c-4.29-2.19-8.76-4.11-13.41-5.66c-4.29-1.46-8.85-2.65-13.41-3.47
		c-5.93-1.09-11.95-1.64-18.16-1.64c-6.2,0-12.23,0.55-18.16,1.64c-4.56,0.82-9.12,2.01-13.41,3.47c-4.65,1.55-9.12,3.47-13.41,5.66
		c-32.39,16.42-54.56,50.09-54.56,88.78c0,1.09,0,2.28,0.09,3.38c0.09,4.93,0.64,9.76,1.55,14.42c0.73,4.56,1.92,9.12,3.38,13.41
		c13.14,39.69,50.55,68.43,94.53,68.43s81.39-28.74,94.53-68.43c1.46-4.29,2.65-8.85,3.38-13.41c0.91-4.74,1.46-9.58,1.55-14.51
		c0.09-1.09,0.09-2.19,0.09-3.28C355.55,371.01,333.37,337.34,300.98,320.92z"/>
</g>
</svg>
