<?xml version="1.0" encoding="UTF-8" standalone="no"?>
<!DOCTYPE svg PUBLIC "-//W3C//DTD SVG 1.1//EN" "http://www.w3.org/Graphics/SVG/1.1/DTD/svg11.dtd">
<svg width="100%" height="100%" viewBox="0 0 335 59" version="1.1" xmlns="http://www.w3.org/2000/svg" xmlns:xlink="http://www.w3.org/1999/xlink" xml:space="preserve" xmlns:serif="http://www.serif.com/" style="fill-rule:evenodd;clip-rule:evenodd;stroke-linejoin:round;stroke-miterlimit:2;">
    <g id="Artboard1" transform="matrix(1,0,0,1,-39.4997,-1.72712)">
        <rect x="39.5" y="1.727" width="334.04" height="58.7" style="fill:none;"/>
        <clipPath id="_clip1">
            <rect x="39.5" y="1.727" width="334.04" height="58.7"/>
        </clipPath>
        <g clip-path="url(#_clip1)">
            <g transform="matrix(1,0,0,1,-23.0605,-0.955751)">
                <path d="M101.3,45.28L89.95,4.99L71.66,4.69L74.07,12.1L76.46,11.66L63.06,52.74L77.37,52.74L76.42,48.89L75.05,43.35L90.15,33.68L93.17,52.74L106.69,52.74L106.69,44.72L101.3,45.28ZM77.38,32.13L82.69,13.74L85.24,13.74L88.66,26.36L77.37,32.13L77.38,32.13Z" style="fill:white;fill-rule:nonzero;"/>
                <path d="M133.44,45.28L133.44,32.46L126.47,28.21L132.05,21.79L131.25,9.14L126.46,4.99L96.08,4.99L96.08,13.93L102.54,12.04L106.46,34.7L101.73,35.94L103.46,42.53L112.04,41.65L112.64,31.21L119.97,31.43L125.33,37.57L125.33,52.74L147.19,55.26L147.19,46.21L133.43,45.28L133.44,45.28ZM124.27,20.46L120.58,22.93L112.72,22.93L112.02,11.78L121.66,11.78L124.28,14.11L124.28,20.47L124.27,20.46Z" style="fill:white;fill-rule:nonzero;"/>
                <path d="M143.58,4.99L157.76,4.99L162.41,8.8L163.27,16.33L156.44,18.93L155.65,14.38L150.9,11.9L145.62,14.51L142.27,23.32L145.04,33.37L150.09,35.8L156.04,32.77L156.04,29.39L163.27,26.62L162.58,36.6L155.73,43.43L142.76,42.88L137.03,37.84L133.78,23.07L137.03,9.62L143.58,4.99Z" style="fill:white;fill-rule:nonzero;"/>
                <path d="M165.58,4.99L175.27,4.99L174.64,33.6L184.38,32.02L183.76,8.73L193.11,3.41L193.19,31.6L196.33,31.29L195.52,41.71L193.16,41.71L193.83,52.74L184.38,52.74L184.38,42.61L174.64,42.61L174.64,52.74L155.65,55.26L156.38,46.78L166.02,45.28L165.58,4.99Z" style="fill:white;fill-rule:nonzero;"/>
                <path d="M250.06,46.81L250.06,52.74L276.21,52.74L275.58,40.87L270.54,41.95L269.5,44.81L261.37,44.05L261.37,34.34L272.76,33.22L272.76,25.8L260.96,25.91L260.96,13.42L269.05,12.15L270.06,14.42L274.52,14.92L275.78,4.64L250.06,4.64L250.06,8.94L252.18,10.5L252.18,46.02L250.06,46.81Z" style="fill:white;fill-rule:nonzero;"/>
                <path d="M277.98,13.52L277.98,4.64L292.26,4.64L288.95,43.43L304.54,39.81L304.54,52.74L279.04,52.71L279.27,46.54L281.11,45.08L281.11,14.12L277.98,13.52Z" style="fill:white;fill-rule:nonzero;"/>
                <path d="M328.52,52.74L327.46,48.48L322.64,45.28L315.36,11.11L315.31,4.64L296.19,4.64L296.14,10.07L299.31,9.49L294.57,33.36L292.25,34.34L292.25,39.17L302.91,36.92L303.58,32.34L311.48,30.83L314.35,52.75L328.51,52.75L328.52,52.74ZM304.27,23.48L307.07,12.42L308.59,12.85L310.15,22.09L304.28,23.48L304.27,23.48Z" style="fill:white;fill-rule:nonzero;"/>
                <path d="M353.59,34.62L357.23,33.67L356.26,28.63L340.1,27.47L337.32,33.69L345.26,35L344.86,38.41L340.21,40.58L333.19,38.18L329.86,27L332.79,14.84L339.37,12.31L344.84,14.16L344.07,17.78L352.45,20.92L354.21,14.29L347.22,4.99L331.72,4.99L324.36,10.33L321.06,26.46L325.76,44.57L337.59,49.63L344.66,47.54L344.47,52.74L354.52,52.74L355.18,48.65L351.75,47.03L353.59,34.62Z" style="fill:white;fill-rule:nonzero;"/>
                <path d="M390.88,8.47L383.99,4.64L369.42,4.62L362.51,9.47L358.13,24.57L360.71,44.62L370.23,52.64L383.21,52.66L392.91,44.88L397.1,23.75L390.88,8.47ZM387.11,34.74L380.42,43.98L376.75,44.71L368.96,38.84L366.38,24.51L370.44,12.6L379.15,11.78L384.18,14.82L387.13,24.7L387.13,34.74L387.11,34.74Z" style="fill:white;fill-rule:nonzero;"/>
                <path d="M196.97,44.46L196.56,52.74L217.36,52.89L215.95,44.4L211.09,43.58L211.33,13.7L215.49,12.98L215.25,4.75L196.73,5.36L196.91,13.16L202.34,14.23L201.62,44.2L196.97,44.48L196.97,44.46Z" style="fill:white;fill-rule:nonzero;"/>
                <path d="M239.74,4.99L217.89,4.32L217.89,11.55L221.2,12.59L221.2,55.26L218.15,57.65L218.12,62.11L232.08,62.11L230.67,45.27L241,45.27L248.76,37.71L248.76,10.19L239.73,4.99L239.74,4.99ZM239.8,32.63L235.5,35.83L230.01,36.1L229.66,13.65L236.23,13.65L239.8,16.51L239.8,32.63Z" style="fill:white;fill-rule:nonzero;"/>
            </g>
        </g>
    </g>
</svg>
